<?xml version="1.0" encoding="UTF-8"?>
<!DOCTYPE svg PUBLIC "-//W3C//DTD SVG 1.1//EN" "http://www.w3.org/Graphics/SVG/1.1/DTD/svg11.dtd">
<!-- Creator: CorelDRAW X7 -->
<svg xmlns="http://www.w3.org/2000/svg" xml:space="preserve" width="5in" height="1.2in" version="1.1" style="shape-rendering:geometricPrecision; text-rendering:geometricPrecision; image-rendering:optimizeQuality; fill-rule:evenodd; clip-rule:evenodd"
viewBox="0 0 5000 1200"
 xmlns:xlink="http://www.w3.org/1999/xlink">
 <defs>
  <style type="text/css">
   <![CDATA[
    .fil0 {fill:#EFAB1F}
   ]]>
  </style>
 </defs>
 <g id="Layer_x0020_1">
  <metadata id="CorelCorpID_0Corel-Layer"/>
  <path class="fil0" d="M1030 804c0,55 -44,100 -99,100 -55,0 -99,-45 -99,-100 0,-55 44,-99 99,-99 54,0 99,44 99,99zm91 248c11,18 29,33 54,45 25,13 58,22 100,28 41,7 93,10 153,10 52,0 100,-5 145,-12 45,-8 82,-20 114,-36 32,-16 57,-35 75,-60 18,-24 27,-53 27,-85 0,-60 -23,-103 -70,-131 -47,-28 -125,-44 -233,-48l-93 -6c-23,-2 -40,-4 -52,-8 -11,-3 -18,-10 -18,-22 0,-6 2,-12 6,-17 3,-5 8,-10 15,-15 14,4 29,6 45,8 15,2 33,2 51,2 45,0 85,-5 119,-17 35,-12 64,-27 87,-47 23,-20 41,-44 54,-72 12,-27 18,-57 18,-89 0,-24 -4,-45 -12,-63 23,-7 44,-11 62,-13 18,-2 33,-2 44,-2l0 -142c-26,1 -54,8 -85,20 -30,11 -55,26 -77,44 -23,-21 -52,-38 -88,-50 -35,-13 -76,-18 -124,-18 -44,0 -85,5 -120,17 -35,12 -65,27 -88,47 -24,20 -42,44 -55,71 -12,27 -18,56 -18,88 0,38 8,73 26,104 17,31 43,57 77,78 -25,15 -47,34 -65,56 -18,22 -27,47 -27,72 0,33 14,58 43,76 -29,11 -54,28 -76,49 -21,21 -31,46 -31,78 1,23 6,42 17,60zm195 -150l42 3 99 5c36,2 66,5 88,8 21,3 39,7 50,12 12,5 19,12 23,19 4,8 6,16 6,26 0,21 -15,37 -45,48 -31,12 -70,18 -119,18 -64,0 -110,-7 -137,-20 -27,-13 -41,-33 -41,-62 -1,-23 11,-41 34,-57zm45 -494c18,-20 45,-31 81,-31 35,0 62,11 80,31 18,21 28,48 28,79 0,32 -10,60 -28,81 -18,22 -45,33 -80,33 -35,0 -62,-11 -81,-33 -18,-21 -27,-49 -27,-81 0,-31 9,-58 27,-79zm718 490l0 -629 -190 0 0 629 190 0zm177 -491l0 314c0,30 2,57 7,79 5,22 15,42 30,57 15,16 37,28 65,36 28,8 66,12 113,12 10,0 22,0 35,0 13,-1 26,-2 37,-3 13,-1 23,-2 33,-3 10,-1 16,-3 19,-3l0 -136c-6,3 -15,5 -28,6 -12,1 -24,2 -35,2 -34,0 -57,-7 -69,-19 -11,-13 -17,-36 -17,-70l0 -272 160 0 0 -139 -160 0 0 -216 -190 0 0 216 -104 0 0 139 104 0 0 0zm401 403c9,22 22,39 39,54 17,14 36,26 57,33 22,8 45,12 69,12 47,0 88,-9 123,-26 35,-17 67,-42 95,-75 0,18 2,34 5,49 2,15 5,29 9,43l189 0c-7,-16 -11,-36 -14,-61 -3,-24 -4,-56 -4,-93l0 -242c0,-82 -19,-143 -57,-185 -37,-41 -99,-62 -186,-62 -39,0 -74,4 -106,9 -32,7 -61,15 -85,25 -25,11 -48,23 -69,36 -19,13 -38,27 -53,41l80 109c29,-23 61,-42 95,-56 34,-14 71,-22 111,-22 31,0 52,7 65,21 13,14 20,32 20,55l0 15c-138,11 -240,38 -303,78 -64,41 -95,98 -95,170 1,26 6,50 15,72zm221 -177c33,-18 87,-31 162,-39l0 116c-15,16 -34,29 -58,39 -23,10 -51,16 -84,16 -21,0 -38,-5 -51,-15 -12,-10 -19,-25 -19,-45 0,-29 16,-54 50,-72zm659 265l0 -873 -190 0 0 873 190 0zm322 0l0 -629 -190 0 0 629 190 0zm199 -14c47,18 105,28 174,28 36,0 71,-4 104,-12 33,-7 63,-19 88,-36 26,-17 46,-39 62,-66 14,-27 23,-59 23,-96 0,-35 -8,-63 -23,-85 -15,-23 -34,-41 -58,-54 -24,-14 -50,-24 -81,-31 -31,-7 -62,-13 -92,-18 -39,-7 -67,-15 -86,-24 -17,-10 -26,-24 -26,-42 0,-17 7,-30 21,-40 14,-10 36,-14 63,-14 30,0 60,6 91,18 31,11 61,28 94,49l74 -108c-35,-29 -73,-53 -116,-69 -42,-17 -95,-25 -160,-25 -36,0 -68,5 -97,14 -30,9 -56,22 -77,41 -22,17 -39,39 -52,64 -12,26 -18,55 -18,88 0,35 7,65 22,88 14,22 33,40 57,54 23,14 50,24 79,32 30,6 59,13 88,18 44,8 74,17 92,27 17,10 26,25 26,47 0,20 -9,35 -27,45 -18,10 -42,15 -72,15 -38,0 -77,-8 -117,-22 -39,-14 -73,-34 -102,-59l-76 105c36,26 75,49 122,68zm583 -477l0 314c0,30 2,57 7,79 5,22 15,42 30,57 15,16 37,28 65,36 28,8 66,12 113,12 10,0 21,0 35,0 13,-1 25,-2 37,-3 12,-1 23,-2 32,-3 10,-1 17,-3 20,-3l0 -136c-6,3 -15,5 -28,6 -12,1 -24,2 -35,2 -35,0 -57,-7 -69,-19 -11,-13 -17,-36 -17,-70l0 -272 159 0 0 -139 -160 0 0 -216 -190 0 0 216 -104 0 0 139 105 0 0 0zm-3809 -376l0 625 190 0 0 -625 -190 0zm-555 863c66,0 127,-8 184,-23 56,-16 105,-41 147,-75 43,-35 76,-80 99,-136 24,-57 36,-126 36,-208 0,-79 -12,-147 -36,-201 -23,-55 -56,-100 -98,-134 -41,-34 -90,-59 -148,-74 -57,-15 -118,-22 -185,-22l-266 0 0 873 267 0zm-77 -713l87 0c95,0 163,22 203,67 41,45 61,114 61,207 0,50 -5,92 -14,128 -9,35 -25,65 -46,88 -21,22 -48,39 -81,50 -33,11 -74,17 -121,17l-90 0 0 -557 1 0zm1782 -170c-55,0 -99,44 -99,99 0,55 44,100 99,100 55,0 99,-45 99,-100 1,-55 -44,-99 -99,-99zm1778 0c-55,0 -99,44 -99,99 0,55 44,100 99,100 55,0 99,-45 99,-100 0,-55 -45,-99 -99,-99zm231 1134l0 -115 1 0c0,5 1,9 2,12 1,4 2,7 3,10 0,3 1,5 2,8 1,2 2,6 3,8l24 76 32 0 25 -76c2,-6 3,-11 5,-17 2,-6 3,-13 4,-19l1 0 0 113 35 0 0 -166 -51 0 -34 122 -1 0 -36 -122 -48 0 0 166 33 0zm215 -4c6,-3 12,-8 18,-14 0,3 0,7 1,9 1,3 1,6 2,9l35 0c-1,-4 -2,-7 -2,-12 -1,-5 -1,-11 -1,-18l0 -45c0,-15 -3,-27 -11,-35 -7,-8 -19,-12 -35,-12 -7,0 -14,1 -20,2 -5,1 -11,2 -15,5 -5,2 -10,4 -13,7 -4,2 -7,5 -10,7l15 21c6,-4 12,-8 18,-11 7,-2 14,-4 21,-4 6,0 10,2 13,4 2,3 3,6 3,11l0 2c-26,3 -45,7 -57,15 -12,8 -19,19 -19,33 0,5 1,10 3,13 2,4 4,7 7,10 4,2 7,5 11,6 4,1 8,2 13,2 9,0 16,-1 23,-5zm-18 -24c-3,-2 -4,-5 -4,-8 0,-6 4,-10 9,-13 7,-4 17,-6 31,-8l0 22c-2,3 -7,5 -11,7 -4,2 -10,3 -15,3 -5,0 -8,-1 -10,-3zm171 70c8,-2 15,-3 21,-7 6,-3 11,-6 14,-11 4,-5 5,-10 5,-16 0,-11 -4,-19 -13,-25 -9,-5 -23,-8 -44,-9l-17 -1c-5,0 -8,-1 -10,-2 -3,-1 -4,-2 -4,-4 0,-1 0,-2 1,-3 1,-1 2,-2 3,-3 3,1 6,1 9,2 3,0 6,1 10,1 8,0 15,-1 22,-3 7,-3 12,-5 17,-10 4,-4 7,-8 10,-13 2,-5 3,-11 3,-16 0,-5 -1,-9 -3,-12 5,-1 9,-2 12,-3 3,0 7,0 8,0l0 -28c-5,0 -10,2 -15,4 -6,3 -11,5 -15,9 -4,-5 -10,-8 -17,-10 -7,-2 -14,-3 -23,-3 -8,0 -16,1 -23,3 -6,3 -12,5 -16,10 -4,4 -9,8 -10,13 -3,5 -3,11 -3,17 0,7 1,13 4,19 4,5 9,10 15,15 -5,3 -9,6 -12,10 -3,4 -5,9 -5,14 0,5 2,10 8,14 -6,2 -10,5 -14,9 -4,4 -6,9 -6,15 0,4 1,7 4,11 1,4 6,6 10,9 5,2 10,4 19,5 7,1 17,1 29,1 8,0 17,0 26,-2zm-48 -19c-5,-3 -7,-7 -7,-12 0,-4 2,-7 6,-11l8 1 18 1c7,0 13,1 17,2 4,1 7,1 9,2 2,1 3,3 4,3 1,2 1,4 1,5 0,5 -3,7 -8,10 -6,2 -14,3 -23,3 -11,-1 -20,-2 -25,-4zm8 -86c-4,-4 -5,-9 -5,-15 0,-5 1,-10 5,-15 3,-4 8,-5 15,-5 6,0 11,1 15,5 3,5 5,10 5,15 0,6 -2,11 -5,15 -4,4 -9,6 -15,6 -7,1 -12,-2 -15,-6zm152 59c6,-3 12,-8 18,-14 0,3 0,7 1,9 1,3 1,6 1,9l36 0c-1,-4 -2,-7 -2,-12 -1,-5 -1,-11 -1,-18l0 -45c0,-15 -4,-27 -11,-35 -8,-8 -19,-12 -35,-12 -7,0 -14,1 -20,2 -6,1 -11,2 -16,5 -4,2 -9,4 -12,7 -4,2 -8,5 -10,7l15 21c6,-4 12,-8 18,-11 7,-2 13,-4 21,-4 6,0 10,2 12,4 3,3 4,6 4,11l0 2c-26,3 -45,7 -58,15 -11,8 -18,19 -18,33 0,5 1,10 3,13 1,4 4,7 7,10 3,2 7,5 11,6 4,1 8,2 13,2 8,0 16,-1 23,-5zm-19 -24c-2,-2 -3,-5 -3,-8 0,-6 3,-10 9,-13 7,-4 17,-6 31,-8l0 22c-3,3 -7,5 -11,7 -4,2 -10,3 -16,3 -4,0 -7,-1 -10,-3zm196 28l0 -26 -62 0 57 -75 0 -19 -97 0 0 26 53 0 -57 74 0 18 106 0 0 2zm57 -135l0 -29 -36 0 0 29 36 0zm0 135l0 -119 -36 0 0 119 36 0zm64 0l0 -80c4,-3 8,-7 12,-8 4,-3 8,-4 13,-4 5,0 9,2 11,4 3,3 3,7 3,13l0 75 36 0 0 -86c0,-6 -1,-12 -2,-16 -2,-4 -4,-8 -8,-11 -3,-2 -6,-5 -11,-5 -4,-2 -9,-2 -14,-2 -5,0 -10,1 -14,2 -4,1 -8,3 -11,5 -4,1 -7,4 -10,6 -2,3 -5,5 -6,8l0 -19 -35 0 0 118 36 0 0 0zm207 -15l-14 -22c-4,3 -9,7 -15,10 -6,2 -12,4 -20,4 -7,0 -14,-2 -19,-7 -5,-4 -8,-10 -9,-20l79 0 0 -5c0,-14 -2,-25 -5,-33 -4,-9 -8,-15 -13,-20 -5,-5 -11,-9 -18,-10 -7,-2 -12,-3 -19,-3 -6,0 -12,1 -20,3 -7,3 -13,6 -19,11 -6,5 -11,11 -15,19 -4,8 -6,18 -6,29 0,12 2,21 5,29 4,8 9,15 13,20 6,5 12,8 20,10 7,3 15,4 22,4 22,-2 39,-8 53,-19zm-76 -56c1,-9 4,-15 8,-19 4,-4 9,-6 15,-6 13,0 21,8 22,25l-45 0z"/>
 </g>
</svg>
